<?xml version="1.0" standalone="no"?>
<!DOCTYPE svg PUBLIC "-//W3C//DTD SVG 20010904//EN"
 "http://www.w3.org/TR/2001/REC-SVG-20010904/DTD/svg10.dtd">
<svg version="1.0" xmlns="http://www.w3.org/2000/svg"
 width="1024.000000pt" height="1024.000000pt" viewBox="0 0 1024.000000 1024.000000"
 preserveAspectRatio="xMidYMid meet">
<metadata>
Created by potrace 1.11, written by Peter Selinger 2001-2013
</metadata>
<g transform="translate(0.000000,1024.000000) scale(0.100000,-0.100000)"
fill="#000000" stroke="none">
<path d="M1690 8645 c-196 -47 -364 -224 -399 -419 -7 -39 -11 -288 -11 -706
l0 -646 30 -48 c21 -32 44 -53 73 -66 41 -19 78 -20 1220 -20 1133 0 1180 1
1215 19 46 23 67 46 87 94 13 32 15 121 15 685 -1 410 -5 665 -11 697 -41 195
-202 358 -403 410 -51 13 -182 15 -910 14 -673 -1 -863 -4 -906 -14z"/>
<path d="M6770 8653 c-60 -10 -153 -47 -207 -82 -111 -72 -204 -207 -232 -336
-7 -33 -10 -277 -8 -720 2 -637 3 -672 21 -701 10 -17 33 -40 50 -50 30 -18
75 -19 1229 -21 1158 -3 1199 -2 1235 16 42 22 63 43 86 88 15 29 16 100 16
680 -1 392 -5 670 -11 703 -33 177 -174 337 -358 404 -55 20 -74 21 -926 22
-478 1 -881 0 -895 -3z"/>
<path d="M1384 6241 c-47 -22 -80 -59 -95 -111 -11 -37 -8 -1137 4 -1190 3
-14 8 -52 12 -85 12 -113 16 -138 40 -265 14 -70 39 -176 56 -236 17 -60 32
-116 34 -125 10 -48 116 -313 175 -436 221 -462 613 -964 1009 -1293 30 -25
59 -50 65 -55 70 -67 384 -276 552 -368 341 -185 761 -344 1074 -406 30 -6 66
-14 80 -17 274 -59 692 -84 1020 -61 777 55 1566 370 2175 866 167 137 396
363 510 506 22 28 46 56 52 63 48 50 323 441 323 458 0 3 8 18 19 32 69 98
213 411 282 612 37 107 101 336 114 405 24 139 45 272 51 330 3 39 8 79 11 90
3 11 6 279 7 595 3 529 1 578 -15 610 -19 40 -41 61 -86 84 -29 14 -144 16
-1213 16 -1139 0 -1182 -1 -1218 -19 -42 -22 -63 -43 -85 -87 -14 -27 -16 -91
-17 -470 -1 -485 -2 -525 -25 -704 -17 -135 -89 -355 -158 -480 -126 -229
-350 -442 -587 -558 -49 -23 -188 -70 -229 -76 -14 -3 -46 -8 -71 -12 -53 -8
-220 -8 -270 1 -186 31 -350 103 -505 221 -349 266 -521 612 -550 1104 -2 36
-4 260 -5 499 -1 361 -3 440 -16 469 -19 47 -41 70 -86 93 -36 18 -79 19
-1215 19 -1125 0 -1180 -1 -1219 -19z"/>
</g>
</svg>
